<?xml version="1.0" encoding="UTF-8" standalone="no"?>
<svg
   xmlns:dc="http://purl.org/dc/elements/1.1/"
   xmlns:cc="http://creativecommons.org/ns#"
   xmlns:rdf="http://www.w3.org/1999/02/22-rdf-syntax-ns#"
   xmlns:svg="http://www.w3.org/2000/svg"
   xmlns="http://www.w3.org/2000/svg"
   xmlns:sodipodi="http://sodipodi.sourceforge.net/DTD/sodipodi-0.dtd"
   xmlns:inkscape="http://www.inkscape.org/namespaces/inkscape"
   viewBox="0 0 33.08 32.83"
   version="1.1"
   id="svg14"
   sodipodi:docname="github_mark.svg"
   inkscape:version="1.0.1 (3bc2e813f5, 2020-09-07)">
  <metadata
     id="metadata18">
    <rdf:RDF>
      <cc:Work
         rdf:about="">
        <dc:format>image/svg+xml</dc:format>
        <dc:type
           rdf:resource="http://purl.org/dc/dcmitype/StillImage" />
      </cc:Work>
    </rdf:RDF>
  </metadata>
  <sodipodi:namedview
     pagecolor="#ffffff"
     bordercolor="#666666"
     borderopacity="1"
     objecttolerance="10"
     gridtolerance="10"
     guidetolerance="10"
     inkscape:pageopacity="0"
     inkscape:pageshadow="2"
     inkscape:window-width="1920"
     inkscape:window-height="1001"
     id="namedview16"
     showgrid="false"
     inkscape:zoom="25.281753"
     inkscape:cx="16.540001"
     inkscape:cy="10.086326"
     inkscape:window-x="-9"
     inkscape:window-y="-9"
     inkscape:window-maximized="1"
     inkscape:current-layer="svg14" />
  <defs
     id="defs4">
    <style
       id="style2">.cls-1{fill:#fff;}.cls-2{fill:#6c56a4;stroke:#fff;stroke-miterlimit:10;stroke-width:0.25px;fill-rule:evenodd;}</style>
  </defs>
  <title
     id="title6">Asset 1</title>
  <g
     id="Layer_2"
     data-name="Layer 2"
     transform="matrix(0.04158892,0,0,0.04158892,0,0.00478387)">
    <g
       id="Layer_1-2"
       data-name="Layer 1">
      <ellipse
         class="cls-1"
         cx="16.540001"
         cy="16.48"
         rx="16.540001"
         ry="16.35"
         id="ellipse8" />
      <path
         class="cls-2"
         d="m 16.54,0.13 a 16.29,16.29 0 0 0 -5.15,31.75 c 0.81,0.14 1.11,-0.36 1.11,-0.8 0,-0.44 0,-1.41 0,-2.76 C 8,29.3 7,26.14 7,26.14 A 4.3,4.3 0 0 0 5.19,23.76 c -1.48,-1 0.11,-1 0.11,-1 a 3.46,3.46 0 0 1 2.5,1.68 3.48,3.48 0 0 0 4.74,1.35 3.54,3.54 0 0 1 1,-2.18 C 9.92,23.2 6.12,21.8 6.12,15.61 A 6.26,6.26 0 0 1 7.82,11.2 5.82,5.82 0 0 1 8,6.89 c 0,0 1.37,-0.44 4.48,1.67 a 15.41,15.41 0 0 1 8.16,0 c 3.11,-2.11 4.48,-1.67 4.48,-1.67 a 5.82,5.82 0 0 1 0.16,4.31 6.3,6.3 0 0 1 1.67,4.37 c 0,6.26 -3.81,7.63 -7.44,8 a 3.91,3.91 0 0 1 1.11,3 c 0,2.18 0,3.93 0,4.47 0,0.54 0.29,0.94 1.12,0.78 A 16.3,16.3 0 0 0 16.54,0.13 Z"
         id="path10" />
    </g>
  </g>
</svg>
